REM DIRINDEX 1\2\6,1\2\7,1\2\8,1\3\9,1\3\10,1\3\11,1\4\12,1\4\13,1\4\14,1\5\15,1\5\16,1\5\17,1\5\18
REM DIRNAME cjc019,folder01,folder02,folder03,folder04,folder05,folder06,folder07,folder08,folder09,folder10,folder11,folder12,folder13,folder14,folder15,folder16,folder17
TITLE ""
FILE "2Q_j_1443-1456.mp3" MP3
  TRACK 01 AUDIO
    TITLE "2:cjc019_0791"
    INDEX 01 00:00:00
  TRACK 02 AUDIO
    TITLE "0:"
    INDEX 01 00:06:14
  TRACK 03 AUDIO
    TITLE "6:cjc019_0792"
    INDEX 01 00:07:31
  TRACK 04 AUDIO
    TITLE "0:"
    INDEX 01 00:08:50
  TRACK 05 AUDIO
    TITLE "7:cjc019_0793"
    INDEX 01 00:09:26
  TRACK 06 AUDIO
    TITLE "0:"
    INDEX 01 00:12:01
  TRACK 07 AUDIO
    TITLE "8:cjc019_0794"
    INDEX 01 00:12:60
  TRACK 08 AUDIO
    TITLE "0:"
    INDEX 01 00:15:48
  TRACK 09 AUDIO
    TITLE "6:cjc019_0795"
    INDEX 01 00:16:30
  TRACK 10 AUDIO
    TITLE "0:"
    INDEX 01 00:17:35
  TRACK 11 AUDIO
    TITLE "7:cjc019_0796"
    INDEX 01 00:18:19
  TRACK 12 AUDIO
    TITLE "0:"
    INDEX 01 00:20:08
  TRACK 13 AUDIO
    TITLE "8:cjc019_0797"
    INDEX 01 00:20:59
  TRACK 14 AUDIO
    TITLE "0:"
    INDEX 01 00:24:25
  TRACK 15 AUDIO
    TITLE "6:cjc019_0798"
    INDEX 01 00:25:01
  TRACK 16 AUDIO
    TITLE "0:"
    INDEX 01 00:26:28
  TRACK 17 AUDIO
    TITLE "7:cjc019_0799"
    INDEX 01 00:27:04
  TRACK 18 AUDIO
    TITLE "0:"
    INDEX 01 00:28:19
  TRACK 19 AUDIO
    TITLE "8:cjc019_0800"
    INDEX 01 00:28:70
  TRACK 20 AUDIO
    TITLE "0:"
    INDEX 01 00:32:48
  TRACK 21 AUDIO
    TITLE "6:cjc019_0801"
    INDEX 01 00:33:22
  TRACK 22 AUDIO
    TITLE "0:"
    INDEX 01 00:35:04
  TRACK 23 AUDIO
    TITLE "7:cjc019_0802"
    INDEX 01 00:35:57
  TRACK 24 AUDIO
    TITLE "0:"
    INDEX 01 00:37:67
  TRACK 25 AUDIO
    TITLE "8:cjc019_0803"
    INDEX 01 00:38:43
  TRACK 26 AUDIO
    TITLE "0:"
    INDEX 01 00:42:70
  TRACK 27 AUDIO
    TITLE "6:cjc019_0804"
    INDEX 01 00:43:46
  TRACK 28 AUDIO
    TITLE "0:"
    INDEX 01 00:44:54
  TRACK 29 AUDIO
    TITLE "7:cjc019_0805"
    INDEX 01 00:45:45
  TRACK 30 AUDIO
    TITLE "0:"
    INDEX 01 00:49:69
  TRACK 31 AUDIO
    TITLE "8:cjc019_0806"
    INDEX 01 00:50:46
  TRACK 32 AUDIO
    TITLE "0:"
    INDEX 01 00:53:66
  TRACK 33 AUDIO
    TITLE "6:cjc019_0807"
    INDEX 01 00:54:46
  TRACK 34 AUDIO
    TITLE "0:"
    INDEX 01 00:55:71
  TRACK 35 AUDIO
    TITLE "7:cjc019_0808"
    INDEX 01 00:56:55
  TRACK 36 AUDIO
    TITLE "0:"
    INDEX 01 01:02:32
  TRACK 37 AUDIO
    TITLE "8:cjc019_0809"
    INDEX 01 01:03:12
  TRACK 38 AUDIO
    TITLE "0:"
    INDEX 01 01:07:04
  TRACK 39 AUDIO
    TITLE "6:cjc019_0810"
    INDEX 01 01:07:61
  TRACK 40 AUDIO
    TITLE "0:"
    INDEX 01 01:08:66
  TRACK 41 AUDIO
    TITLE "7:cjc019_0811"
    INDEX 01 01:09:57
  TRACK 42 AUDIO
    TITLE "0:"
    INDEX 01 01:12:26
  TRACK 43 AUDIO
    TITLE "8:cjc019_0812"
    INDEX 01 01:13:02
  TRACK 44 AUDIO
    TITLE "0:"
    INDEX 01 01:16:50
  TRACK 45 AUDIO
    TITLE "6:cjc019_0813"
    INDEX 01 01:17:32
  TRACK 46 AUDIO
    TITLE "0:"
    INDEX 01 01:18:53
  TRACK 47 AUDIO
    TITLE "7:cjc019_0814"
    INDEX 01 01:19:36
  TRACK 48 AUDIO
    TITLE "0:"
    INDEX 01 01:21:35
  TRACK 49 AUDIO
    TITLE "8:cjc019_0815"
    INDEX 01 01:22:11
  TRACK 50 AUDIO
    TITLE "0:"
    INDEX 01 01:24:30
  TRACK 51 AUDIO
    TITLE "6:cjc019_0816"
    INDEX 01 01:25:11
  TRACK 52 AUDIO
    TITLE "0:"
    INDEX 01 01:26:66
  TRACK 53 AUDIO
    TITLE "7:cjc019_0817"
    INDEX 01 01:27:48
  TRACK 54 AUDIO
    TITLE "0:"
    INDEX 01 01:29:19
  TRACK 55 AUDIO
    TITLE "8:cjc019_0818"
    INDEX 01 01:29:72
  TRACK 56 AUDIO
    TITLE "0:"
    INDEX 01 01:32:47
  TRACK 57 AUDIO
    TITLE "6:cjc019_0819"
    INDEX 01 01:33:27
  TRACK 58 AUDIO
    TITLE "0:"
    INDEX 01 01:35:26
  TRACK 59 AUDIO
    TITLE "7:cjc019_0820"
    INDEX 01 01:36:07
  TRACK 60 AUDIO
    TITLE "0:"
    INDEX 01 01:38:63
  TRACK 61 AUDIO
    TITLE "8:cjc019_0821"
    INDEX 01 01:39:41
  TRACK 62 AUDIO
    TITLE "0:"
    INDEX 01 01:42:39
  TRACK 63 AUDIO
    TITLE "6:cjc019_0822"
    INDEX 01 01:43:15
  TRACK 64 AUDIO
    TITLE "0:"
    INDEX 01 01:44:66
  TRACK 65 AUDIO
    TITLE "7:cjc019_0823"
    INDEX 01 01:45:44
  TRACK 66 AUDIO
    TITLE "0:"
    INDEX 01 01:47:44
  TRACK 67 AUDIO
    TITLE "8:cjc019_0824"
    INDEX 01 01:48:22
  TRACK 68 AUDIO
    TITLE "0:"
    INDEX 01 01:53:55
  TRACK 69 AUDIO
    TITLE "6:cjc019_0825"
    INDEX 01 01:54:33
  TRACK 70 AUDIO
    TITLE "0:"
    INDEX 01 01:56:00
  TRACK 71 AUDIO
    TITLE "7:cjc019_0826"
    INDEX 01 01:56:59
  TRACK 72 AUDIO
    TITLE "0:"
    INDEX 01 02:00:45
  TRACK 73 AUDIO
    TITLE "8:cjc019_0827"
    INDEX 01 02:01:23
  TRACK 74 AUDIO
    TITLE "0:"
    INDEX 01 02:04:47
  TRACK 75 AUDIO
    TITLE "6:cjc019_0828"
    INDEX 01 02:05:27
  TRACK 76 AUDIO
    TITLE "0:"
    INDEX 01 02:07:08
  TRACK 77 AUDIO
    TITLE "7:cjc019_0829"
    INDEX 01 02:07:61
  TRACK 78 AUDIO
    TITLE "0:"
    INDEX 01 02:10:02
  TRACK 79 AUDIO
    TITLE "8:cjc019_0830"
    INDEX 01 02:10:55
  TRACK 80 AUDIO
    TITLE "0:"
    INDEX 01 02:14:24
  TRACK 81 AUDIO
    TITLE "6:cjc019_0831"
    INDEX 01 02:15:02
  TRACK 82 AUDIO
    TITLE "0:"
    INDEX 01 02:16:58
  TRACK 83 AUDIO
    TITLE "7:cjc019_0832"
    INDEX 01 02:17:32
  TRACK 84 AUDIO
    TITLE "0:"
    INDEX 01 02:20:14
  TRACK 85 AUDIO
    TITLE "8:cjc019_0833"
    INDEX 01 02:20:61
  TRACK 86 AUDIO
    TITLE "0:"
    INDEX 01 02:24:16
